<?xml version="1.0" encoding="iso-8859-1"?>
<!-- Generator: Adobe Illustrator 19.0.0, SVG Export Plug-In . SVG Version: 6.00 Build 0)  -->
<svg version="1.1" id="Layer_1" xmlns="http://www.w3.org/2000/svg" xmlns:xlink="http://www.w3.org/1999/xlink" x="0px" y="0px"
	 viewBox="0 0 512 512" style="enable-background:new 0 0 512 512;" xml:space="preserve">
<circle style="fill:#4AB8A1;" cx="256" cy="256" r="256"/>
<path style="fill:#F7EAC6;" d="M117.82,364.108c-6.472-9.968-3.64-23.296,6.328-29.768l16.044-10.416
	c-9.968,6.476-23.296,3.64-29.768-6.328c-6.472-9.964-3.64-23.288,6.328-29.764l12.032-7.812l0.02,0.028
	c21.548-13.98,64.964-42.228,74.176-48.212c17.928-11.644,43.088-25.788,39.112-45.712c48.78-35.876,65.66-2.284,97.236-2.916
	l16.244-10.548l61.212,94.252l-16.428,10.672c7.916,19.508-13.8,40.32-21.744,45.476c-7.696,5-85.46,55.5-123.976,80.516
	c-9.884,6.416-17.184,11.156-20.052,13.016l-12.032,7.82l-0.08-0.116c-9.672,4.86-21.656,1.772-27.688-7.516
	s-3.976-21.488,4.4-28.344l-0.076-0.116l-14.04,9.116c-9.968,6.468-23.296,3.64-29.768-6.328c-6.476-9.968-3.64-23.292,6.328-29.768
	l-14.036,9.116C137.62,376.908,124.292,374.08,117.82,364.108z"/>
<path style="fill:#E6D9B8;" d="M379.192,287.824l-12.032-7.812l-0.02,0.028c-21.548-13.976-64.964-42.228-74.18-48.212
	c-17.924-11.644-43.084-25.788-39.108-45.712c-1.984-1.456-3.936-2.788-5.88-4.068c-1.912,1.256-3.86,2.58-5.88,4.068
	c3.976,19.924-21.184,34.072-39.112,45.712c-9.212,5.984-52.628,34.236-74.176,48.212l-0.02-0.028l-12.032,7.812
	c-9.84,6.396-12.712,19.456-6.552,29.384c2.752,2.636,5.308,4.656,7.136,5.84c0.908,0.588,2.82,1.832,5.496,3.572
	c5.704,1.552,12.012,0.78,17.364-2.696l-10.756,6.984c25.04,16.26,81.028,52.62,111.876,72.656c2.384,1.548,4.604,2.984,6.66,4.32
	c2.06-1.336,4.28-2.772,6.664-4.32c30.844-20.036,86.836-56.396,111.876-72.656l-10.756-6.984
	c5.352,3.476,11.664,4.244,17.368,2.688c2.672-1.736,4.584-2.972,5.492-3.568c1.828-1.184,4.384-3.204,7.132-5.836
	C391.904,307.28,389.032,294.22,379.192,287.824z"/>
<rect x="380.415" y="155.569" transform="matrix(-0.8387 0.5445 -0.5445 -0.8387 837.1821 185.1559)" style="fill:#E6E6E6;" width="21.519" height="121.942"/>
<path style="fill:#805026;" d="M360.484,149.496l79.444,122.324l70.284-45.644c-5.964-51.408-27.148-98.148-58.94-135.636
	L360.484,149.496z"/>
<path style="fill:#FFF4D9;" d="M368.556,364.108c6.472-9.968,3.64-23.296-6.328-29.768l-16.044-10.416
	c9.964,6.476,23.292,3.64,29.768-6.328c6.468-9.964,3.64-23.288-6.328-29.764l-12.032-7.812l-0.016,0.028
	c-21.552-13.98-64.968-42.228-74.184-48.212c-17.924-11.644-43.088-25.788-39.112-45.712c-48.78-35.876-86.164-15.624-97.236-2.916
	L130.8,172.66l-61.204,94.248l16.428,10.672c-7.912,19.508,13.8,40.32,21.74,45.476c7.696,5,85.46,55.5,123.976,80.516
	c9.884,6.416,17.184,11.156,20.052,13.016l12.028,7.82l0.08-0.116c9.672,4.86,21.656,1.772,27.688-7.516s3.976-21.488-4.4-28.344
	l0.08-0.116l14.04,9.116c9.968,6.468,23.296,3.64,29.764-6.328c6.472-9.968,3.64-23.292-6.328-29.768l14.04,9.116
	C348.756,376.908,362.084,374.08,368.556,364.108z"/>
<g>
	<path style="fill:#F2E4C2;" d="M267.908,420.272l-0.076,0.116l-12.032-7.812c-2.868-1.86-10.168-6.604-20.052-13.024
		c-38.516-25.012-116.28-75.512-123.976-80.512c-7.94-5.152-29.652-25.964-21.74-45.48l-16.428-10.664l58.192-89.608l-0.988-0.64
		L69.6,266.9l16.428,10.672c-7.912,19.508,13.8,40.32,21.74,45.476c7.696,5,85.46,55.5,123.976,80.516
		c9.884,6.416,17.184,11.156,20.052,13.016l12.032,7.82l0.076-0.116c9.108,4.576,20.208,2.036,26.512-6.024
		C284.016,423.036,275.296,423.992,267.908,420.272z"/>
	<path style="fill:#F2E4C2;" d="M305.304,393.416l-84.16-54.088c-2.616-1.012-5.68,1.364-2.916,4.084l83.084,54
		c9.46,6.148,21.888,3.82,28.664-4.952C322.952,397.772,313.116,398.488,305.304,393.416z"/>
	<path style="fill:#F2E4C2;" d="M342.936,366.664l-107.8-70.544c-2.616-1.012-5.68,1.364-2.916,4.084l106.72,70.456
		c9.464,6.148,21.892,3.82,28.672-4.956C360.576,371.024,350.752,371.736,342.936,366.664z"/>
	<path style="fill:#F2E4C2;" d="M350.184,320.288l-82.968-54.696c-2.612-1.008-5.68,1.368-2.916,4.088l81.888,54.604
		c9.464,6.148,21.888,3.82,28.668-4.956C367.828,324.648,357.996,325.36,350.184,320.288z"/>
</g>
<rect x="84.455" y="155.501" transform="matrix(0.8387 0.5446 -0.5446 0.8387 133.2506 -16.9358)" style="fill:#E6E6E6;" width="21.52" height="121.948"/>
<path style="fill:#406A80;" d="M0.404,241.916l46.048,29.904l79.436-122.324l-73.956-48.028
	C22.008,140.92,3.256,189.296,0.404,241.916z"/>
<path style="fill:#F7EAC6;" d="M246.176,161.116c-14.644-0.3-55.592,8.668-65.456,7.772c-9.864-0.9-35.484,41.96-44.28,52.26
	c-0.056,0.068-0.104,0.148-0.16,0.216c-0.232,0.248-0.46,0.448-0.692,0.72c-8.164,9.524-22.596,24.568-15.764,35.088
	c4.528,6.972,12.236,10.608,19.98,10.304c0.004,0.012,0.016,0.044,0.016,0.044c0.184-0.016,0.384-0.04,0.58-0.06
	c2.448-0.164,4.888-0.736,7.228-1.712c12.672-4.456,32.568-18.428,54.016-56.512c20.324,15.544,80.1,36.464,136.588-26.6
	C313.724,169.784,260.824,161.416,246.176,161.116z"/>
<g>
	<path style="fill:#FFFFFF;" d="M276.84,392.668l-6.268-4.076c-0.688-0.444-1.616-0.252-2.068,0.44l-11.396,17.552
		c-0.448,0.688-0.252,1.616,0.44,2.068l6.264,4.076c5.54,3.592,12.944,2.024,16.54-3.52
		C283.952,403.668,282.376,396.264,276.84,392.668z"/>
	<path style="fill:#FFFFFF;" d="M312.708,363.976l-6.268-4.072c-0.688-0.448-1.616-0.252-2.068,0.436l-11.396,17.548
		c-0.448,0.688-0.252,1.62,0.436,2.072l6.268,4.068c5.536,3.596,12.94,2.028,16.54-3.512
		C319.812,374.976,318.244,367.572,312.708,363.976z"/>
	<path style="fill:#FFFFFF;" d="M350.96,337.676l-6.264-4.076c-0.688-0.444-1.62-0.252-2.072,0.436l-11.396,17.548
		c-0.448,0.696-0.252,1.62,0.44,2.072l6.264,4.072c5.54,3.596,12.94,2.024,16.54-3.516
		C358.072,348.676,356.5,341.272,350.96,337.676z"/>
	<path style="fill:#FFFFFF;" d="M362.92,297.028l-6.264-4.072c-0.688-0.448-1.62-0.252-2.072,0.432l-11.396,17.548
		c-0.448,0.696-0.248,1.624,0.44,2.072l6.264,4.072c5.54,3.596,12.94,2.024,16.54-3.516
		C370.032,308.028,368.452,300.624,362.92,297.028z"/>
</g>
<g>
</g>
<g>
</g>
<g>
</g>
<g>
</g>
<g>
</g>
<g>
</g>
<g>
</g>
<g>
</g>
<g>
</g>
<g>
</g>
<g>
</g>
<g>
</g>
<g>
</g>
<g>
</g>
<g>
</g>
</svg>
