<svg id="Layer_1" data-name="Layer 1" xmlns="http://www.w3.org/2000/svg" viewBox="0 0 122.88 122.88"><defs><style>.cls-1{fill-rule:evenodd;}</style></defs><title>data-management</title><path class="cls-1" d="M112.21,67.94l4.42,4.42a3,3,0,0,1,0,4.23l-3.56,3.56A23.78,23.78,0,0,1,115.28,86h4.61a3,3,0,0,1,3,3v6.25a3,3,0,0,1-3,3h-5a23.63,23.63,0,0,1-2.6,5.72l3.26,3.26a3,3,0,0,1,0,4.24l-4.42,4.42a3,3,0,0,1-4.23,0l-3.56-3.56a24,24,0,0,1-5.9,2.21v4.61a3,3,0,0,1-3,3H88.16a3,3,0,0,1-3-3v-5a24,24,0,0,1-5.72-2.61l-3.27,3.26a3,3,0,0,1-4.23,0l-4.42-4.42a3,3,0,0,1,0-4.23l3.56-3.56a23.54,23.54,0,0,1-2.21-5.89H64.26a3,3,0,0,1-3-3V87.45a3,3,0,0,1,3-3h5a23.73,23.73,0,0,1,2.61-5.73l-3.27-3.26a3,3,0,0,1,0-4.23l4.42-4.42a3,3,0,0,1,4.23,0l3.57,3.56a23.83,23.83,0,0,1,5.89-2.21V63.56a3,3,0,0,1,3-3H96a3,3,0,0,1,3,3v5a23.55,23.55,0,0,1,5.73,2.61L108,67.94a3,3,0,0,1,4.24,0ZM18,27.19c8.26,2.76,19.76,4.46,32.53,4.46S74.83,30,83.09,27.19c7.25-2.42,11.73-5.35,11.73-8.22s-4.48-5.79-11.73-8.21C74.83,8,63.33,6.29,50.56,6.29S26.29,8,18,10.76C2.65,15.89,2.22,21.91,18,27.19ZM49.18,95c-12.87-.12-24.55-1.93-33.14-4.8a39.87,39.87,0,0,1-9.68-4.55v18.85c.57,2.67,4.92,5.36,11.67,7.61,8.26,2.76,19.76,4.47,32.53,4.47,2.15,0,4.27,0,6.34-.15a15.28,15.28,0,0,0,2,2.53l0,0,3.45,3.44c-3.8.32-7.77.49-11.85.49-13.41,0-25.62-1.84-34.52-4.81-4.69-1.56-16-6.71-16-12.86v-2Q.07,61.09,0,19C0,13.1,6.13,8.12,16,4.81,24.94,1.84,37.15,0,50.56,0S76.18,1.84,85.08,4.81,100,12.22,101,17.41a3.11,3.11,0,0,1,.18,1.06V49.33A15,15,0,0,0,96,48.42H94.81a1.85,1.85,0,0,0,0-.23h0V28.52a40.15,40.15,0,0,1-9.78,4.62C76.18,36.11,64,38,50.56,38S24.94,36.11,16,33.14a39.87,39.87,0,0,1-9.68-4.56v20.2c.57,2.68,4.92,5.37,11.67,7.62,8.26,2.76,19.76,4.47,32.53,4.47,4.09,0,8.06-.18,11.83-.51L60.72,62c-.23.2-.45.4-.67.62A15,15,0,0,0,57,67c-2.11.09-4.27.14-6.45.14-13.41,0-25.62-1.84-34.52-4.81A39.87,39.87,0,0,1,6.36,57.8V76.65C6.93,79.32,11.28,82,18,84.26c8,2.66,18.9,4.34,31.09,4.46v5c0,.44,0,.88.06,1.31Zm42.9-15.93a12.29,12.29,0,1,1-12.3,12.29,12.29,12.29,0,0,1,12.3-12.29Z"/></svg>